<?xml version="1.0" encoding="UTF-8" standalone="no"?>
<!DOCTYPE svg PUBLIC "-//W3C//DTD SVG 1.1//EN"
 "http://www.w3.org/Graphics/SVG/1.1/DTD/svg11.dtd">
<!-- Generated by graphviz version 2.43.0 (0)
 -->
<!-- Title: G Pages: 1 -->
<svg width="298pt" height="218pt"
 viewBox="0.00 0.00 297.80 218.00" xmlns="http://www.w3.org/2000/svg" xmlns:xlink="http://www.w3.org/1999/xlink">
<g id="graph0" class="graph" transform="scale(1 1) rotate(0) translate(4 214)">
<title>G</title>
<polygon fill="white" stroke="transparent" points="-4,4 -4,-214 293.8,-214 293.8,4 -4,4"/>
<!-- wurzel -->
<g id="node1" class="node">
<title>wurzel</title>
<ellipse fill="none" stroke="black" cx="138" cy="-192" rx="27" ry="18"/>
</g>
<!-- B -->
<g id="node2" class="node">
<title>B</title>
<ellipse fill="none" stroke="black" cx="101" cy="-105" rx="27" ry="18"/>
<text text-anchor="middle" x="101" y="-101.3" font-family="Times,serif" font-size="14.00">B</text>
</g>
<!-- wurzel&#45;&gt;B -->
<g id="edge1" class="edge">
<title>wurzel&#45;&gt;B</title>
<path fill="none" stroke="black" d="M130.87,-174.61C125.63,-162.58 118.4,-145.98 112.37,-132.13"/>
<polygon fill="black" stroke="black" points="115.44,-130.4 108.24,-122.63 109.02,-133.19 115.44,-130.4"/>
<text text-anchor="middle" x="133.5" y="-144.8" font-family="Times,serif" font-size="14.00"> &#160;&#160;&#160;&#160;</text>
</g>
<!-- Bc -->
<g id="node3" class="node">
<title>Bc</title>
<ellipse fill="none" stroke="black" cx="176" cy="-105" rx="27" ry="18"/>
<text text-anchor="middle" x="176" y="-101.3" font-family="Times,serif" font-size="14.00">Bc</text>
</g>
<!-- wurzel&#45;&gt;Bc -->
<g id="edge2" class="edge">
<title>wurzel&#45;&gt;Bc</title>
<path fill="none" stroke="black" d="M145.33,-174.61C150.74,-162.5 158.22,-145.77 164.44,-131.86"/>
<polygon fill="black" stroke="black" points="167.81,-132.9 168.7,-122.34 161.42,-130.04 167.81,-132.9"/>
<text text-anchor="middle" x="171.5" y="-144.8" font-family="Times,serif" font-size="14.00"> &#160;&#160;&#160;&#160;</text>
</g>
<!-- AB -->
<g id="node4" class="node">
<title>AB</title>
<ellipse fill="none" stroke="black" cx="27" cy="-18" rx="27" ry="18"/>
<text text-anchor="middle" x="27" y="-14.3" font-family="Times,serif" font-size="14.00">AB</text>
</g>
<!-- B&#45;&gt;AB -->
<g id="edge3" class="edge">
<title>B&#45;&gt;AB</title>
<path fill="none" stroke="black" d="M87.77,-88.8C76.41,-75.75 59.85,-56.74 46.89,-41.85"/>
<polygon fill="black" stroke="black" points="49.32,-39.31 40.12,-34.06 44.04,-43.91 49.32,-39.31"/>
<text text-anchor="middle" x="80.5" y="-57.8" font-family="Times,serif" font-size="14.00"> &#160;&#160;&#160;&#160;</text>
</g>
<!-- AcB -->
<g id="node5" class="node">
<title>AcB</title>
<ellipse fill="none" stroke="black" cx="101" cy="-18" rx="28.7" ry="18"/>
<text text-anchor="middle" x="101" y="-14.3" font-family="Times,serif" font-size="14.00">AcB</text>
</g>
<!-- B&#45;&gt;AcB -->
<g id="edge4" class="edge">
<title>B&#45;&gt;AcB</title>
<path fill="none" stroke="black" d="M101,-86.8C101,-75.16 101,-59.55 101,-46.24"/>
<polygon fill="black" stroke="black" points="104.5,-46.18 101,-36.18 97.5,-46.18 104.5,-46.18"/>
<text text-anchor="middle" x="112.5" y="-57.8" font-family="Times,serif" font-size="14.00"> &#160;&#160;&#160;&#160;</text>
</g>
<!-- ABc -->
<g id="node6" class="node">
<title>ABc</title>
<ellipse fill="none" stroke="black" cx="176" cy="-18" rx="28.7" ry="18"/>
<text text-anchor="middle" x="176" y="-14.3" font-family="Times,serif" font-size="14.00">ABc</text>
</g>
<!-- Bc&#45;&gt;ABc -->
<g id="edge5" class="edge">
<title>Bc&#45;&gt;ABc</title>
<path fill="none" stroke="black" d="M176,-86.8C176,-75.16 176,-59.55 176,-46.24"/>
<polygon fill="black" stroke="black" points="179.5,-46.18 176,-36.18 172.5,-46.18 179.5,-46.18"/>
<text text-anchor="middle" x="187.5" y="-57.8" font-family="Times,serif" font-size="14.00"> &#160;&#160;&#160;&#160;</text>
</g>
<!-- AcBc -->
<g id="node7" class="node">
<title>AcBc</title>
<ellipse fill="none" stroke="black" cx="256" cy="-18" rx="33.6" ry="18"/>
<text text-anchor="middle" x="256" y="-14.3" font-family="Times,serif" font-size="14.00">AcBc</text>
</g>
<!-- Bc&#45;&gt;AcBc -->
<g id="edge6" class="edge">
<title>Bc&#45;&gt;AcBc</title>
<path fill="none" stroke="black" d="M189.93,-89.19C202.21,-76.15 220.29,-56.95 234.43,-41.92"/>
<polygon fill="black" stroke="black" points="237.11,-44.18 241.41,-34.5 232.01,-39.38 237.11,-44.18"/>
<text text-anchor="middle" x="231.5" y="-57.8" font-family="Times,serif" font-size="14.00"> &#160;&#160;&#160;&#160;</text>
</g>
</g>
</svg>
